# xmcd CD database file
#
# Track frame offsets:
#	150
#	12204
#	25134
#	39788
#	58881
#	70376
#	84476
#	95950
#	110482
#	121962
#	139526
#	153061
#	163821
#	179857
#	192840
#
# Disc length: 2753 seconds
#
# Revision: 0
# Processed by: cddbd v1.5.2PL0 Copyright (c) Steve Scherf et al.
# Submitted via: CDex 1.60beta1-cs1
#
DISCID=ca0abf0f
DTITLE=Various Artist - Classic Country
DYEAR=1900
DGENRE=Country
TTITLE0=Stand By Your Man - (Tammy Wynette)
TTITLE1=Rose Garden - (Lynn Anderson)
TTITLE2=The Harper Valley PTA - (Jeannie C Riley)
TTITLE3=Ode to Billy Joe - (Bobby Gentry)
TTITLE4=The Single Girl - (Sandy Posey)
TTITLE5=Delta Dawn - (Helen Reddy)
TTITLE6=Dont It Make My Brown Eyes Blue - (Crystal Gayle)
TTITLE7=If You Love Me (Let Me Know) - (Olivia Newton-John)
TTITLE8=Help Me Make It Through The Night - (Sammi Smith)
TTITLE9=Together Again - (Emmylou Harris)
TTITLE10=Coal Miners Daughter - (Loretta Lynn)
TTITLE11=Would You Lay with Me (in a Field of Stone) - (Judy Stone)
TTITLE12=Blanket on the Ground - (Billy Jo Spears)
TTITLE13=Right Time of the Night - (Jennifer Warnes)
TTITLE14=Teddy Bear Song - (Barbara Fairchild)
EXTD=
EXTT0=
EXTT1=
EXTT2=
EXTT3=
EXTT4=
EXTT5=
EXTT6=
EXTT7=
EXTT8=
EXTT9=
EXTT10=
EXTT11=
EXTT12=
EXTT13=
EXTT14=
PLAYORDER=
